<mxfile host="app.diagrams.net" agent="Mozilla/5.0 (Macintosh; Intel Mac OS X 10_15_7) AppleWebKit/537.36 (KHTML, like Gecko) Chrome/139.0.0.0 Safari/537.36" version="28.1.0">
  <diagram name="Page-1" id="NSKCN1yDX3Lk4BcxiZCk">
    <mxGraphModel dx="946" dy="610" grid="1" gridSize="10" guides="1" tooltips="1" connect="1" arrows="1" fold="1" page="1" pageScale="1" pageWidth="827" pageHeight="1169" math="0" shadow="0">
      <root>
        <mxCell id="0" />
        <mxCell id="1" parent="0" />
        <mxCell id="nY15QL7Lt_zJvUoqdlJS-3" style="edgeStyle=orthogonalEdgeStyle;rounded=0;orthogonalLoop=1;jettySize=auto;html=1;exitX=0.5;exitY=1;exitDx=0;exitDy=0;" parent="1" edge="1">
          <mxGeometry relative="1" as="geometry">
            <mxPoint x="370" y="140.0000000000001" as="sourcePoint" />
            <mxPoint x="370" y="190.0000000000001" as="targetPoint" />
          </mxGeometry>
        </mxCell>
        <mxCell id="nY15QL7Lt_zJvUoqdlJS-6" value="System On" style="strokeWidth=2;html=1;shape=mxgraph.flowchart.start_1;whiteSpace=wrap;fillColor=#dae8fc;strokeColor=#6c8ebf;" parent="1" vertex="1">
          <mxGeometry x="320" y="80" width="100" height="60" as="geometry" />
        </mxCell>
        <mxCell id="PWIwXvVs7kOz23ifdJrL-4" style="edgeStyle=orthogonalEdgeStyle;rounded=0;orthogonalLoop=1;jettySize=auto;html=1;exitX=0;exitY=0.5;exitDx=0;exitDy=0;exitPerimeter=0;entryX=0;entryY=0.5;entryDx=0;entryDy=0;entryPerimeter=0;" parent="1" source="nY15QL7Lt_zJvUoqdlJS-7" target="nY15QL7Lt_zJvUoqdlJS-17" edge="1">
          <mxGeometry relative="1" as="geometry">
            <mxPoint x="160" y="840" as="targetPoint" />
            <Array as="points">
              <mxPoint x="40" y="255" />
              <mxPoint x="40" y="840" />
            </Array>
          </mxGeometry>
        </mxCell>
        <mxCell id="nY15QL7Lt_zJvUoqdlJS-7" value="Is it feeding time?" style="strokeWidth=2;html=1;shape=mxgraph.flowchart.decision;whiteSpace=wrap;fillColor=#a0522d;fontColor=#ffffff;strokeColor=#6D1F00;" parent="1" vertex="1">
          <mxGeometry x="300" y="190" width="140" height="130" as="geometry" />
        </mxCell>
        <mxCell id="nY15QL7Lt_zJvUoqdlJS-8" value="Dispense Food" style="rounded=1;whiteSpace=wrap;html=1;absoluteArcSize=1;arcSize=14;strokeWidth=2;fillColor=#b0e3e6;strokeColor=#0e8088;" parent="1" vertex="1">
          <mxGeometry x="110" y="390" width="100" height="100" as="geometry" />
        </mxCell>
        <mxCell id="nY15QL7Lt_zJvUoqdlJS-16" style="edgeStyle=orthogonalEdgeStyle;rounded=0;orthogonalLoop=1;jettySize=auto;html=1;exitX=1;exitY=0.5;exitDx=0;exitDy=0;exitPerimeter=0;entryX=0;entryY=0.5;entryDx=0;entryDy=0;" parent="1" source="nY15QL7Lt_zJvUoqdlJS-11" target="nY15QL7Lt_zJvUoqdlJS-13" edge="1">
          <mxGeometry relative="1" as="geometry" />
        </mxCell>
        <mxCell id="n7GkNw_v5iyanOMHSTfW-2" style="edgeStyle=orthogonalEdgeStyle;rounded=0;orthogonalLoop=1;jettySize=auto;html=1;entryX=1;entryY=0.5;entryDx=0;entryDy=0;" edge="1" parent="1" source="nY15QL7Lt_zJvUoqdlJS-11" target="nY15QL7Lt_zJvUoqdlJS-8">
          <mxGeometry relative="1" as="geometry" />
        </mxCell>
        <mxCell id="nY15QL7Lt_zJvUoqdlJS-11" value="Is there food in the&lt;div&gt;container?&lt;/div&gt;" style="strokeWidth=2;html=1;shape=mxgraph.flowchart.decision;whiteSpace=wrap;fillColor=#a0522d;fontColor=#ffffff;strokeColor=#6D1F00;" parent="1" vertex="1">
          <mxGeometry x="305" y="375" width="130" height="130" as="geometry" />
        </mxCell>
        <mxCell id="PWIwXvVs7kOz23ifdJrL-11" style="edgeStyle=orthogonalEdgeStyle;rounded=0;orthogonalLoop=1;jettySize=auto;html=1;exitX=1;exitY=0.5;exitDx=0;exitDy=0;exitPerimeter=0;entryX=0.5;entryY=1;entryDx=0;entryDy=0;" parent="1" source="nY15QL7Lt_zJvUoqdlJS-12" target="nY15QL7Lt_zJvUoqdlJS-13" edge="1">
          <mxGeometry relative="1" as="geometry">
            <mxPoint x="650" y="630" as="targetPoint" />
          </mxGeometry>
        </mxCell>
        <mxCell id="nY15QL7Lt_zJvUoqdlJS-12" value="Has the pet eaten?" style="strokeWidth=2;html=1;shape=mxgraph.flowchart.decision;whiteSpace=wrap;fillColor=#a0522d;fontColor=#ffffff;strokeColor=#6D1F00;" parent="1" vertex="1">
          <mxGeometry x="310" y="570" width="120" height="120" as="geometry" />
        </mxCell>
        <mxCell id="nY15QL7Lt_zJvUoqdlJS-13" value="Send alert" style="rounded=1;whiteSpace=wrap;html=1;absoluteArcSize=1;arcSize=14;strokeWidth=2;fillColor=#b0e3e6;strokeColor=#0e8088;" parent="1" vertex="1">
          <mxGeometry x="600" y="390" width="100" height="100" as="geometry" />
        </mxCell>
        <mxCell id="nY15QL7Lt_zJvUoqdlJS-17" value="System Off" style="strokeWidth=2;html=1;shape=mxgraph.flowchart.start_1;whiteSpace=wrap;fillColor=#dae8fc;strokeColor=#6c8ebf;" parent="1" vertex="1">
          <mxGeometry x="320" y="810" width="100" height="60" as="geometry" />
        </mxCell>
        <mxCell id="nY15QL7Lt_zJvUoqdlJS-18" style="edgeStyle=orthogonalEdgeStyle;rounded=0;orthogonalLoop=1;jettySize=auto;html=1;exitX=0.5;exitY=1;exitDx=0;exitDy=0;exitPerimeter=0;entryX=0.5;entryY=0;entryDx=0;entryDy=0;entryPerimeter=0;" parent="1" source="nY15QL7Lt_zJvUoqdlJS-12" target="nY15QL7Lt_zJvUoqdlJS-17" edge="1">
          <mxGeometry relative="1" as="geometry" />
        </mxCell>
        <mxCell id="PWIwXvVs7kOz23ifdJrL-1" value="Yes" style="text;html=1;align=center;verticalAlign=middle;resizable=0;points=[];autosize=1;strokeColor=#b85450;fillColor=#f8cecc;gradientColor=#ea6b66;" parent="1" vertex="1">
          <mxGeometry x="380" y="330" width="40" height="30" as="geometry" />
        </mxCell>
        <mxCell id="PWIwXvVs7kOz23ifdJrL-2" value="No" style="text;html=1;align=center;verticalAlign=middle;resizable=0;points=[];autosize=1;strokeColor=#36393d;fillColor=#cdeb8b;" parent="1" vertex="1">
          <mxGeometry x="480" y="400" width="40" height="30" as="geometry" />
        </mxCell>
        <mxCell id="PWIwXvVs7kOz23ifdJrL-6" value="No" style="text;html=1;align=center;verticalAlign=middle;resizable=0;points=[];autosize=1;strokeColor=#36393d;fillColor=#cdeb8b;" parent="1" vertex="1">
          <mxGeometry x="230" y="220" width="40" height="30" as="geometry" />
        </mxCell>
        <mxCell id="PWIwXvVs7kOz23ifdJrL-8" value="Yes" style="text;html=1;align=center;verticalAlign=middle;resizable=0;points=[];autosize=1;strokeColor=#b85450;fillColor=#f8cecc;gradientColor=#ea6b66;" parent="1" vertex="1">
          <mxGeometry x="380" y="520" width="40" height="30" as="geometry" />
        </mxCell>
        <mxCell id="PWIwXvVs7kOz23ifdJrL-9" style="edgeStyle=orthogonalEdgeStyle;rounded=0;orthogonalLoop=1;jettySize=auto;html=1;exitX=0.5;exitY=1;exitDx=0;exitDy=0;exitPerimeter=0;entryX=0.5;entryY=0;entryDx=0;entryDy=0;entryPerimeter=0;" parent="1" source="nY15QL7Lt_zJvUoqdlJS-11" target="nY15QL7Lt_zJvUoqdlJS-12" edge="1">
          <mxGeometry relative="1" as="geometry" />
        </mxCell>
        <mxCell id="PWIwXvVs7kOz23ifdJrL-10" value="No" style="text;html=1;align=center;verticalAlign=middle;resizable=0;points=[];autosize=1;strokeColor=#36393d;fillColor=#cdeb8b;" parent="1" vertex="1">
          <mxGeometry x="480" y="590" width="40" height="30" as="geometry" />
        </mxCell>
        <mxCell id="PWIwXvVs7kOz23ifdJrL-13" value="Monitor the amount" style="rounded=1;whiteSpace=wrap;html=1;absoluteArcSize=1;arcSize=14;strokeWidth=2;fillColor=#b0e3e6;strokeColor=#0e8088;" parent="1" vertex="1">
          <mxGeometry x="640" y="680" width="100" height="100" as="geometry" />
        </mxCell>
        <mxCell id="PWIwXvVs7kOz23ifdJrL-17" value="Deficient" style="text;html=1;align=center;verticalAlign=middle;resizable=0;points=[];autosize=1;strokeColor=#9673a6;fillColor=#e1d5e7;" parent="1" vertex="1">
          <mxGeometry x="615" y="800" width="70" height="30" as="geometry" />
        </mxCell>
        <mxCell id="PWIwXvVs7kOz23ifdJrL-20" value="Excessive" style="text;html=1;align=center;verticalAlign=middle;resizable=0;points=[];autosize=1;strokeColor=#d6b656;fillColor=#fff2cc;" parent="1" vertex="1">
          <mxGeometry x="690" y="610" width="80" height="30" as="geometry" />
        </mxCell>
        <mxCell id="PWIwXvVs7kOz23ifdJrL-30" style="edgeStyle=orthogonalEdgeStyle;rounded=0;orthogonalLoop=1;jettySize=auto;html=1;exitX=0.5;exitY=1;exitDx=0;exitDy=0;entryX=1;entryY=0.5;entryDx=0;entryDy=0;entryPerimeter=0;" parent="1" source="PWIwXvVs7kOz23ifdJrL-13" target="nY15QL7Lt_zJvUoqdlJS-17" edge="1">
          <mxGeometry relative="1" as="geometry" />
        </mxCell>
        <mxCell id="PWIwXvVs7kOz23ifdJrL-32" style="edgeStyle=orthogonalEdgeStyle;rounded=0;orthogonalLoop=1;jettySize=auto;html=1;entryX=0.82;entryY=0.995;entryDx=0;entryDy=0;entryPerimeter=0;" parent="1" source="PWIwXvVs7kOz23ifdJrL-13" target="nY15QL7Lt_zJvUoqdlJS-13" edge="1">
          <mxGeometry relative="1" as="geometry">
            <Array as="points">
              <mxPoint x="682" y="650" />
              <mxPoint x="682" y="650" />
            </Array>
          </mxGeometry>
        </mxCell>
        <mxCell id="PWIwXvVs7kOz23ifdJrL-33" value="Yes" style="text;html=1;align=center;verticalAlign=middle;resizable=0;points=[];autosize=1;strokeColor=#b85450;fillColor=#f8cecc;gradientColor=#ea6b66;" parent="1" vertex="1">
          <mxGeometry x="250" y="660" width="40" height="30" as="geometry" />
        </mxCell>
        <mxCell id="PWIwXvVs7kOz23ifdJrL-35" style="edgeStyle=orthogonalEdgeStyle;rounded=0;orthogonalLoop=1;jettySize=auto;html=1;exitX=0;exitY=0.5;exitDx=0;exitDy=0;exitPerimeter=0;entryX=0.005;entryY=0.615;entryDx=0;entryDy=0;entryPerimeter=0;" parent="1" source="nY15QL7Lt_zJvUoqdlJS-12" target="PWIwXvVs7kOz23ifdJrL-13" edge="1">
          <mxGeometry relative="1" as="geometry">
            <Array as="points">
              <mxPoint x="240" y="630" />
              <mxPoint x="240" y="740" />
              <mxPoint x="631" y="740" />
            </Array>
          </mxGeometry>
        </mxCell>
        <mxCell id="n7GkNw_v5iyanOMHSTfW-1" style="edgeStyle=orthogonalEdgeStyle;rounded=0;orthogonalLoop=1;jettySize=auto;html=1;exitX=0.5;exitY=1;exitDx=0;exitDy=0;exitPerimeter=0;entryX=0.5;entryY=0;entryDx=0;entryDy=0;entryPerimeter=0;" edge="1" parent="1" source="nY15QL7Lt_zJvUoqdlJS-7" target="nY15QL7Lt_zJvUoqdlJS-11">
          <mxGeometry relative="1" as="geometry" />
        </mxCell>
        <mxCell id="n7GkNw_v5iyanOMHSTfW-3" value="Yes" style="text;html=1;align=center;verticalAlign=middle;resizable=0;points=[];autosize=1;strokeColor=#b85450;fillColor=#f8cecc;gradientColor=#ea6b66;" vertex="1" parent="1">
          <mxGeometry x="240" y="400" width="40" height="30" as="geometry" />
        </mxCell>
      </root>
    </mxGraphModel>
  </diagram>
</mxfile>
